{
	"asset":{
		"generator":"Khronos glTF Blender I/O v3.5.30",
		"version":"2.0"
	},
	"extensionsUsed":[
		"KHR_materials_specular",
		"KHR_materials_ior",
		"KHR_texture_transform"
	],
	"extensionsRequired":[
		"KHR_texture_transform"
	],
	"scene":0,
	"scenes":[
		{
			"name":"Scene",
			"nodes":[
				0
			]
		}
	],
	"nodes":[
		{
			"mesh":0,
			"name":"\u6728.001",
			"translation":[
				0,
				1.3153462409973145,
				0
			]
		}
	],
	"materials":[
		{
			"doubleSided":true,
			"extensions":{
				"KHR_materials_specular":{
					"specularColorFactor":[
						0.0312587751069172,
						0.0312587751069172,
						0.0312587751069172
					]
				},
				"KHR_materials_ior":{
					"ior":1.4500000476837158
				}
			},
			"name":"\u30de\u30c6\u30ea\u30a2\u30eb.007",
			"pbrMetallicRoughness":{
				"baseColorTexture":{
					"extensions":{
						"KHR_texture_transform":{
							"offset":[
								-0.999999999999999,
								1.00000004371139
							],
							"rotation":1.5707963705062866,
							"scale":[
								4.6999969482421875,
								1
							]
						}
					},
					"index":0
				},
				"metallicFactor":0
			}
		}
	],
	"meshes":[
		{
			"name":"tree.002",
			"primitives":[
				{
					"attributes":{
						"POSITION":0,
						"TEXCOORD_0":1,
						"NORMAL":2
					},
					"indices":3,
					"material":0
				}
			]
		}
	],
	"textures":[
		{
			"sampler":0,
			"source":0
		}
	],
	"images":[
		{
			"mimeType":"image/jpeg",
			"name":"bark_willow_diff_4k",
			"uri":"tex/bark_willow_diff_4k.jpg"
		}
	],
	"accessors":[
		{
			"bufferView":0,
			"componentType":5126,
			"count":29876,
			"max":[
				4.885520935058594,
				9.208351135253906,
				5.264921188354492
			],
			"min":[
				-4.512951374053955,
				-1.3199739456176758,
				-4.174811363220215
			],
			"type":"VEC3"
		},
		{
			"bufferView":1,
			"componentType":5126,
			"count":29876,
			"type":"VEC2"
		},
		{
			"bufferView":2,
			"componentType":5126,
			"count":29876,
			"type":"VEC3"
		},
		{
			"bufferView":3,
			"componentType":5123,
			"count":143712,
			"type":"SCALAR"
		}
	],
	"bufferViews":[
		{
			"buffer":0,
			"byteLength":358512,
			"byteOffset":0,
			"target":34962
		},
		{
			"buffer":0,
			"byteLength":239008,
			"byteOffset":358512,
			"target":34962
		},
		{
			"buffer":0,
			"byteLength":358512,
			"byteOffset":597520,
			"target":34962
		},
		{
			"buffer":0,
			"byteLength":287424,
			"byteOffset":956032,
			"target":34963
		}
	],
	"samplers":[
		{
			"magFilter":9728,
			"minFilter":9984
		}
	],
	"buffers":[
		{
			"byteLength":1243456,
			"uri":"tree.bin"
		}
	]
}
